# xmcd CD database file
# Copyright (C) 1993-1998 Ti Kan
#
# Track frame offsets:
#	150
#	15870
#	32033
#	47403
#	55756
#	77904
#	92792
#	98037
#	115730
#	133228
#	148836
#	166926
#	180081
#	188924
#	223027
#	245402
#	256875
#	273968
#
# Disc length: 4303 seconds
#
# Revision: 1
# Processed by: cddbd v1.4b41PL1 Copyright (c) Steve Scherf et al.
# Submitted via: NotifyCDPlayer(CDDB) 1.50
#
DISCID=eb10cd12
DTITLE=King Cotton - El Royale Flush en El Blue Cafe
DYEAR=1900
DGENRE=
TTITLE0=Hello Mama
TTITLE1=Natural Natural Ditty
TTITLE2=If It's So Baby
TTITLE3=Wack Wack
TTITLE4=Eighteen With A Bullet
TTITLE5=Chills And Fever
TTITLE6=Gimmie Some More
TTITLE7=Oh Mah Liddy
TTITLE8=A Woman's Love
TTITLE9=Rock Steady Train
TTITLE10=That's How Heartaches Are Made
TTITLE11=You Must Believe Me
TTITLE12=The Wild One
TTITLE13=Be Thankful For What You Got
TTITLE14=Police And Thieves
TTITLE15=Little Lonely One
TTITLE16=Three Cool Cats
TTITLE17=Spanish Grease
EXTD=
EXTT0=
EXTT1=
EXTT2=
EXTT3=
EXTT4=
EXTT5=
EXTT6=
EXTT7=
EXTT8=
EXTT9=
EXTT10=
EXTT11=
EXTT12=
EXTT13=
EXTT14=
EXTT15=
EXTT16=
EXTT17=
PLAYORDER=
